<svg xmlns="http://www.w3.org/2000/svg" width="520" height="100" viewBox="0 0 520 100">
  <defs>
    <linearGradient id="bg" x1="0%" y1="0%" x2="100%" y2="100%">
      <stop offset="0%" style="stop-color:#18181b;stop-opacity:1" />
      <stop offset="100%" style="stop-color:#09090b;stop-opacity:1" />
    </linearGradient>
  </defs>

  <!-- Background -->
  <rect width="520" height="100" rx="12" fill="url(#bg)"/>
  <rect width="520" height="100" rx="12" fill="none" stroke="#27272a" stroke-width="1"/>

  <!-- Heatmap grid - 26 weeks x 7 days -->
  <g transform="translate(20, 16)">
    <!-- Week 1 -->
    <rect x="0" y="0" width="10" height="10" rx="2" fill="#27272a"/>
    <rect x="0" y="12" width="10" height="10" rx="2" fill="#064e3b"/>
    <rect x="0" y="24" width="10" height="10" rx="2" fill="#27272a"/>
    <rect x="0" y="36" width="10" height="10" rx="2" fill="#047857"/>
    <rect x="0" y="48" width="10" height="10" rx="2" fill="#27272a"/>
    <rect x="0" y="60" width="10" height="10" rx="2" fill="#10b981"/>
    <rect x="0" y="72" width="10" height="10" rx="2" fill="#27272a"/>

    <!-- Week 2 -->
    <rect x="12" y="0" width="10" height="10" rx="2" fill="#047857"/>
    <rect x="12" y="12" width="10" height="10" rx="2" fill="#27272a"/>
    <rect x="12" y="24" width="10" height="10" rx="2" fill="#34d399"/>
    <rect x="12" y="36" width="10" height="10" rx="2" fill="#10b981"/>
    <rect x="12" y="48" width="10" height="10" rx="2" fill="#27272a"/>
    <rect x="12" y="60" width="10" height="10" rx="2" fill="#064e3b"/>
    <rect x="12" y="72" width="10" height="10" rx="2" fill="#047857"/>

    <!-- Week 3 -->
    <rect x="24" y="0" width="10" height="10" rx="2" fill="#27272a"/>
    <rect x="24" y="12" width="10" height="10" rx="2" fill="#10b981"/>
    <rect x="24" y="24" width="10" height="10" rx="2" fill="#34d399"/>
    <rect x="24" y="36" width="10" height="10" rx="2" fill="#27272a"/>
    <rect x="24" y="48" width="10" height="10" rx="2" fill="#047857"/>
    <rect x="24" y="60" width="10" height="10" rx="2" fill="#34d399"/>
    <rect x="24" y="72" width="10" height="10" rx="2" fill="#10b981"/>

    <!-- Week 4 -->
    <rect x="36" y="0" width="10" height="10" rx="2" fill="#064e3b"/>
    <rect x="36" y="12" width="10" height="10" rx="2" fill="#27272a"/>
    <rect x="36" y="24" width="10" height="10" rx="2" fill="#27272a"/>
    <rect x="36" y="36" width="10" height="10" rx="2" fill="#10b981"/>
    <rect x="36" y="48" width="10" height="10" rx="2" fill="#34d399"/>
    <rect x="36" y="60" width="10" height="10" rx="2" fill="#047857"/>
    <rect x="36" y="72" width="10" height="10" rx="2" fill="#27272a"/>

    <!-- Week 5 -->
    <rect x="48" y="0" width="10" height="10" rx="2" fill="#10b981"/>
    <rect x="48" y="12" width="10" height="10" rx="2" fill="#34d399"/>
    <rect x="48" y="24" width="10" height="10" rx="2" fill="#047857"/>
    <rect x="48" y="36" width="10" height="10" rx="2" fill="#27272a"/>
    <rect x="48" y="48" width="10" height="10" rx="2" fill="#064e3b"/>
    <rect x="48" y="60" width="10" height="10" rx="2" fill="#27272a"/>
    <rect x="48" y="72" width="10" height="10" rx="2" fill="#10b981"/>

    <!-- Week 6 -->
    <rect x="60" y="0" width="10" height="10" rx="2" fill="#27272a"/>
    <rect x="60" y="12" width="10" height="10" rx="2" fill="#047857"/>
    <rect x="60" y="24" width="10" height="10" rx="2" fill="#10b981"/>
    <rect x="60" y="36" width="10" height="10" rx="2" fill="#34d399"/>
    <rect x="60" y="48" width="10" height="10" rx="2" fill="#10b981"/>
    <rect x="60" y="60" width="10" height="10" rx="2" fill="#047857"/>
    <rect x="60" y="72" width="10" height="10" rx="2" fill="#064e3b"/>

    <!-- Week 7 -->
    <rect x="72" y="0" width="10" height="10" rx="2" fill="#064e3b"/>
    <rect x="72" y="12" width="10" height="10" rx="2" fill="#27272a"/>
    <rect x="72" y="24" width="10" height="10" rx="2" fill="#27272a"/>
    <rect x="72" y="36" width="10" height="10" rx="2" fill="#047857"/>
    <rect x="72" y="48" width="10" height="10" rx="2" fill="#27272a"/>
    <rect x="72" y="60" width="10" height="10" rx="2" fill="#34d399"/>
    <rect x="72" y="72" width="10" height="10" rx="2" fill="#10b981"/>

    <!-- Week 8 -->
    <rect x="84" y="0" width="10" height="10" rx="2" fill="#10b981"/>
    <rect x="84" y="12" width="10" height="10" rx="2" fill="#34d399"/>
    <rect x="84" y="24" width="10" height="10" rx="2" fill="#064e3b"/>
    <rect x="84" y="36" width="10" height="10" rx="2" fill="#27272a"/>
    <rect x="84" y="48" width="10" height="10" rx="2" fill="#10b981"/>
    <rect x="84" y="60" width="10" height="10" rx="2" fill="#047857"/>
    <rect x="84" y="72" width="10" height="10" rx="2" fill="#27272a"/>

    <!-- Week 9 -->
    <rect x="96" y="0" width="10" height="10" rx="2" fill="#27272a"/>
    <rect x="96" y="12" width="10" height="10" rx="2" fill="#047857"/>
    <rect x="96" y="24" width="10" height="10" rx="2" fill="#10b981"/>
    <rect x="96" y="36" width="10" height="10" rx="2" fill="#34d399"/>
    <rect x="96" y="48" width="10" height="10" rx="2" fill="#34d399"/>
    <rect x="96" y="60" width="10" height="10" rx="2" fill="#27272a"/>
    <rect x="96" y="72" width="10" height="10" rx="2" fill="#064e3b"/>

    <!-- Week 10 -->
    <rect x="108" y="0" width="10" height="10" rx="2" fill="#047857"/>
    <rect x="108" y="12" width="10" height="10" rx="2" fill="#27272a"/>
    <rect x="108" y="24" width="10" height="10" rx="2" fill="#27272a"/>
    <rect x="108" y="36" width="10" height="10" rx="2" fill="#064e3b"/>
    <rect x="108" y="48" width="10" height="10" rx="2" fill="#10b981"/>
    <rect x="108" y="60" width="10" height="10" rx="2" fill="#34d399"/>
    <rect x="108" y="72" width="10" height="10" rx="2" fill="#047857"/>

    <!-- Week 11 -->
    <rect x="120" y="0" width="10" height="10" rx="2" fill="#27272a"/>
    <rect x="120" y="12" width="10" height="10" rx="2" fill="#10b981"/>
    <rect x="120" y="24" width="10" height="10" rx="2" fill="#047857"/>
    <rect x="120" y="36" width="10" height="10" rx="2" fill="#27272a"/>
    <rect x="120" y="48" width="10" height="10" rx="2" fill="#27272a"/>
    <rect x="120" y="60" width="10" height="10" rx="2" fill="#064e3b"/>
    <rect x="120" y="72" width="10" height="10" rx="2" fill="#10b981"/>

    <!-- Week 12 -->
    <rect x="132" y="0" width="10" height="10" rx="2" fill="#34d399"/>
    <rect x="132" y="12" width="10" height="10" rx="2" fill="#34d399"/>
    <rect x="132" y="24" width="10" height="10" rx="2" fill="#10b981"/>
    <rect x="132" y="36" width="10" height="10" rx="2" fill="#047857"/>
    <rect x="132" y="48" width="10" height="10" rx="2" fill="#064e3b"/>
    <rect x="132" y="60" width="10" height="10" rx="2" fill="#27272a"/>
    <rect x="132" y="72" width="10" height="10" rx="2" fill="#27272a"/>

    <!-- Week 13 -->
    <rect x="144" y="0" width="10" height="10" rx="2" fill="#064e3b"/>
    <rect x="144" y="12" width="10" height="10" rx="2" fill="#27272a"/>
    <rect x="144" y="24" width="10" height="10" rx="2" fill="#34d399"/>
    <rect x="144" y="36" width="10" height="10" rx="2" fill="#10b981"/>
    <rect x="144" y="48" width="10" height="10" rx="2" fill="#047857"/>
    <rect x="144" y="60" width="10" height="10" rx="2" fill="#10b981"/>
    <rect x="144" y="72" width="10" height="10" rx="2" fill="#34d399"/>

    <!-- Week 14 -->
    <rect x="156" y="0" width="10" height="10" rx="2" fill="#27272a"/>
    <rect x="156" y="12" width="10" height="10" rx="2" fill="#047857"/>
    <rect x="156" y="24" width="10" height="10" rx="2" fill="#27272a"/>
    <rect x="156" y="36" width="10" height="10" rx="2" fill="#27272a"/>
    <rect x="156" y="48" width="10" height="10" rx="2" fill="#34d399"/>
    <rect x="156" y="60" width="10" height="10" rx="2" fill="#064e3b"/>
    <rect x="156" y="72" width="10" height="10" rx="2" fill="#047857"/>

    <!-- Week 15 -->
    <rect x="168" y="0" width="10" height="10" rx="2" fill="#10b981"/>
    <rect x="168" y="12" width="10" height="10" rx="2" fill="#34d399"/>
    <rect x="168" y="24" width="10" height="10" rx="2" fill="#064e3b"/>
    <rect x="168" y="36" width="10" height="10" rx="2" fill="#10b981"/>
    <rect x="168" y="48" width="10" height="10" rx="2" fill="#27272a"/>
    <rect x="168" y="60" width="10" height="10" rx="2" fill="#047857"/>
    <rect x="168" y="72" width="10" height="10" rx="2" fill="#27272a"/>

    <!-- Week 16 -->
    <rect x="180" y="0" width="10" height="10" rx="2" fill="#27272a"/>
    <rect x="180" y="12" width="10" height="10" rx="2" fill="#27272a"/>
    <rect x="180" y="24" width="10" height="10" rx="2" fill="#10b981"/>
    <rect x="180" y="36" width="10" height="10" rx="2" fill="#34d399"/>
    <rect x="180" y="48" width="10" height="10" rx="2" fill="#047857"/>
    <rect x="180" y="60" width="10" height="10" rx="2" fill="#34d399"/>
    <rect x="180" y="72" width="10" height="10" rx="2" fill="#10b981"/>

    <!-- Week 17 -->
    <rect x="192" y="0" width="10" height="10" rx="2" fill="#064e3b"/>
    <rect x="192" y="12" width="10" height="10" rx="2" fill="#047857"/>
    <rect x="192" y="24" width="10" height="10" rx="2" fill="#27272a"/>
    <rect x="192" y="36" width="10" height="10" rx="2" fill="#064e3b"/>
    <rect x="192" y="48" width="10" height="10" rx="2" fill="#10b981"/>
    <rect x="192" y="60" width="10" height="10" rx="2" fill="#27272a"/>
    <rect x="192" y="72" width="10" height="10" rx="2" fill="#34d399"/>

    <!-- Week 18 -->
    <rect x="204" y="0" width="10" height="10" rx="2" fill="#10b981"/>
    <rect x="204" y="12" width="10" height="10" rx="2" fill="#34d399"/>
    <rect x="204" y="24" width="10" height="10" rx="2" fill="#047857"/>
    <rect x="204" y="36" width="10" height="10" rx="2" fill="#27272a"/>
    <rect x="204" y="48" width="10" height="10" rx="2" fill="#27272a"/>
    <rect x="204" y="60" width="10" height="10" rx="2" fill="#10b981"/>
    <rect x="204" y="72" width="10" height="10" rx="2" fill="#064e3b"/>

    <!-- Week 19 -->
    <rect x="216" y="0" width="10" height="10" rx="2" fill="#27272a"/>
    <rect x="216" y="12" width="10" height="10" rx="2" fill="#064e3b"/>
    <rect x="216" y="24" width="10" height="10" rx="2" fill="#34d399"/>
    <rect x="216" y="36" width="10" height="10" rx="2" fill="#10b981"/>
    <rect x="216" y="48" width="10" height="10" rx="2" fill="#047857"/>
    <rect x="216" y="60" width="10" height="10" rx="2" fill="#27272a"/>
    <rect x="216" y="72" width="10" height="10" rx="2" fill="#047857"/>

    <!-- Week 20 -->
    <rect x="228" y="0" width="10" height="10" rx="2" fill="#047857"/>
    <rect x="228" y="12" width="10" height="10" rx="2" fill="#10b981"/>
    <rect x="228" y="24" width="10" height="10" rx="2" fill="#27272a"/>
    <rect x="228" y="36" width="10" height="10" rx="2" fill="#34d399"/>
    <rect x="228" y="48" width="10" height="10" rx="2" fill="#34d399"/>
    <rect x="228" y="60" width="10" height="10" rx="2" fill="#064e3b"/>
    <rect x="228" y="72" width="10" height="10" rx="2" fill="#10b981"/>

    <!-- Week 21 -->
    <rect x="240" y="0" width="10" height="10" rx="2" fill="#34d399"/>
    <rect x="240" y="12" width="10" height="10" rx="2" fill="#27272a"/>
    <rect x="240" y="24" width="10" height="10" rx="2" fill="#064e3b"/>
    <rect x="240" y="36" width="10" height="10" rx="2" fill="#047857"/>
    <rect x="240" y="48" width="10" height="10" rx="2" fill="#27272a"/>
    <rect x="240" y="60" width="10" height="10" rx="2" fill="#10b981"/>
    <rect x="240" y="72" width="10" height="10" rx="2" fill="#27272a"/>

    <!-- Week 22 -->
    <rect x="252" y="0" width="10" height="10" rx="2" fill="#27272a"/>
    <rect x="252" y="12" width="10" height="10" rx="2" fill="#10b981"/>
    <rect x="252" y="24" width="10" height="10" rx="2" fill="#34d399"/>
    <rect x="252" y="36" width="10" height="10" rx="2" fill="#27272a"/>
    <rect x="252" y="48" width="10" height="10" rx="2" fill="#064e3b"/>
    <rect x="252" y="60" width="10" height="10" rx="2" fill="#047857"/>
    <rect x="252" y="72" width="10" height="10" rx="2" fill="#34d399"/>

    <!-- Week 23 -->
    <rect x="264" y="0" width="10" height="10" rx="2" fill="#064e3b"/>
    <rect x="264" y="12" width="10" height="10" rx="2" fill="#047857"/>
    <rect x="264" y="24" width="10" height="10" rx="2" fill="#10b981"/>
    <rect x="264" y="36" width="10" height="10" rx="2" fill="#34d399"/>
    <rect x="264" y="48" width="10" height="10" rx="2" fill="#10b981"/>
    <rect x="264" y="60" width="10" height="10" rx="2" fill="#27272a"/>
    <rect x="264" y="72" width="10" height="10" rx="2" fill="#064e3b"/>

    <!-- Week 24 -->
    <rect x="276" y="0" width="10" height="10" rx="2" fill="#10b981"/>
    <rect x="276" y="12" width="10" height="10" rx="2" fill="#27272a"/>
    <rect x="276" y="24" width="10" height="10" rx="2" fill="#27272a"/>
    <rect x="276" y="36" width="10" height="10" rx="2" fill="#064e3b"/>
    <rect x="276" y="48" width="10" height="10" rx="2" fill="#047857"/>
    <rect x="276" y="60" width="10" height="10" rx="2" fill="#34d399"/>
    <rect x="276" y="72" width="10" height="10" rx="2" fill="#10b981"/>

    <!-- Week 25 -->
    <rect x="288" y="0" width="10" height="10" rx="2" fill="#27272a"/>
    <rect x="288" y="12" width="10" height="10" rx="2" fill="#34d399"/>
    <rect x="288" y="24" width="10" height="10" rx="2" fill="#047857"/>
    <rect x="288" y="36" width="10" height="10" rx="2" fill="#10b981"/>
    <rect x="288" y="48" width="10" height="10" rx="2" fill="#27272a"/>
    <rect x="288" y="60" width="10" height="10" rx="2" fill="#064e3b"/>
    <rect x="288" y="72" width="10" height="10" rx="2" fill="#27272a"/>

    <!-- Week 26 -->
    <rect x="300" y="0" width="10" height="10" rx="2" fill="#047857"/>
    <rect x="300" y="12" width="10" height="10" rx="2" fill="#064e3b"/>
    <rect x="300" y="24" width="10" height="10" rx="2" fill="#34d399"/>
    <rect x="300" y="36" width="10" height="10" rx="2" fill="#27272a"/>
    <rect x="300" y="48" width="10" height="10" rx="2" fill="#10b981"/>
    <rect x="300" y="60" width="10" height="10" rx="2" fill="#047857"/>
    <rect x="300" y="72" width="10" height="10" rx="2" fill="#34d399"/>
  </g>

  <!-- Divider line -->
  <line x1="340" y1="20" x2="340" y2="80" stroke="#3f3f46" stroke-width="1"/>

  <!-- Stats section -->
  <g transform="translate(360, 35)">
    <text x="0" y="0" fill="#71717a" font-family="-apple-system, BlinkMacSystemFont, 'Segoe UI', sans-serif" font-size="11">Jun–Dec</text>
    <text x="0" y="24" fill="#ffffff" font-family="-apple-system, BlinkMacSystemFont, 'Segoe UI', sans-serif" font-size="16" font-weight="600">2,014</text>
    <text x="48" y="24" fill="#71717a" font-family="-apple-system, BlinkMacSystemFont, 'Segoe UI', sans-serif" font-size="11">contributions</text>
  </g>
</svg>
